<?xml version="1.0" encoding="UTF-8"?> <svg xmlns="http://www.w3.org/2000/svg" width="48" height="45" viewBox="0 0 48 45" fill="none"><g clip-path="url(#clip0_1129_3810)"><path d="M16.6546 33.3418C14.7387 33.3418 12.8568 33.0168 11.0512 32.3708C8.94867 31.6204 7.04274 30.4669 5.38759 28.9441C3.73043 27.4214 2.42236 25.6198 1.49749 23.5875C0.604709 21.6274 0.105155 19.5348 0.0148739 17.3721C-0.0754069 15.2094 0.245592 13.0828 0.969845 11.0545C1.72018 8.95192 2.87377 7.046 4.39651 5.39085C5.91924 3.73369 7.72085 2.42562 9.75317 1.50074C11.7133 0.60596 13.8058 0.106406 15.9685 0.0161252C18.1312 -0.0741557 20.2579 0.246843 22.2862 0.971096C24.3887 1.72143 26.2946 2.87502 27.9498 4.39776C29.6049 5.92049 30.915 7.7221 31.8399 9.75442C32.7327 11.7165 33.2322 13.807 33.3225 15.9698C33.4128 18.1325 33.0918 20.2591 32.3675 22.2874C31.6172 24.39 30.4636 26.2959 28.9409 27.951C27.4181 29.6082 25.6165 30.9163 23.5842 31.8411C21.6221 32.7339 19.5316 33.2335 17.3689 33.3258C17.1301 33.3358 16.8914 33.3418 16.6526 33.3418H16.6546ZM16.6747 1.97622C12.7003 1.97622 8.74002 3.57319 5.84501 6.72299C3.18674 9.61398 1.81447 13.3677 1.98099 17.2899C2.1455 21.2141 3.82874 24.8373 6.71973 27.4956C12.6883 32.9807 22.0073 32.5895 27.4924 26.6209C32.9774 20.6523 32.5862 11.3333 26.6176 5.84827C23.7989 3.25621 20.2318 1.97622 16.6747 1.97622Z" fill="#222222"></path><path d="M7.42889 24.0568C7.142 24.0568 6.85912 23.9324 6.66451 23.6937C5.5049 22.2653 4.71645 20.5499 4.38943 18.7323C4.06643 16.9387 4.19282 15.0809 4.75858 13.3555C4.9271 12.8379 5.48484 12.5571 6.00044 12.7256C6.51805 12.8941 6.79893 13.4498 6.6304 13.9674C5.67142 16.8966 6.25524 20.0684 8.19327 22.4518C8.53633 22.8732 8.47213 23.4931 8.05082 23.8361C7.86826 23.9846 7.64958 24.0568 7.43089 24.0568H7.42889Z" fill="#222222"></path><path d="M28.8866 26.5645L27.5547 28.0135L29.9859 30.2483L31.3178 28.7993L28.8866 26.5645Z" fill="#222222"></path><path d="M43.5439 45C42.9139 45 42.2819 44.7733 41.7824 44.3139L29.9476 33.436C28.8903 32.465 28.8221 30.8139 29.7931 29.7566L30.8143 28.6451C31.2837 28.1335 31.9257 27.8366 32.6219 27.8085C33.3181 27.7784 33.9821 28.0212 34.4937 28.4906L46.3285 39.3685C47.3858 40.3395 47.454 41.9906 46.483 43.0479L45.4618 44.1594C44.9502 44.7171 44.2481 45 43.5439 45ZM32.7322 29.7746C32.7322 29.7746 32.7142 29.7746 32.7041 29.7746C32.5336 29.7827 32.3771 29.8529 32.2628 29.9773L31.2416 31.0887C31.1272 31.2131 31.0691 31.3736 31.0771 31.5441C31.0851 31.7147 31.1553 31.8711 31.2797 31.9855L43.1145 42.8633C43.2389 42.9777 43.4014 43.0359 43.5699 43.0279C43.7405 43.0198 43.897 42.9496 44.0113 42.8252L45.0325 41.7138C45.1469 41.5894 45.205 41.4289 45.197 41.2583C45.189 41.0878 45.1188 40.9313 44.9944 40.817L33.1596 29.9391C33.0432 29.8328 32.8907 29.7726 32.7322 29.7726V29.7746Z" fill="#222222"></path></g><defs><clipPath id="clip0_1129_3810"><rect width="47.1687" height="45" fill="white"></rect></clipPath></defs></svg> 