<?xml version="1.0" encoding="UTF-8"?> <svg xmlns="http://www.w3.org/2000/svg" id="Capa_1" data-name="Capa 1" version="1.1" viewBox="0 0 866 234"><defs><style> .cls-1 { opacity: 1; } .cls-1, .cls-2, .cls-3, .cls-4, .cls-5, .cls-6 { fill: #000; fill-rule: evenodd; isolation: isolate; stroke-width: 0px; } .cls-2 { opacity: 1; } .cls-3 { opacity: 1; } .cls-4 { opacity: 1; } .cls-5 { opacity: 1; } .cls-6 { opacity: 1; } </style></defs><path class="cls-3" d="M695.5-.5h17c19.9,8.9,25.8,23.6,17.5,44-8.7,11.5-20.2,15.6-34.5,12.5-16.6-5-23.7-16.1-21.5-33.5,2.9-11.8,10.1-19.4,21.5-23Z"></path><path class="cls-6" d="M419.5,11.5c14-.2,28,0,42,.5,4.2,1.5,7,4.3,8.5,8.5.7,66.3.7,132.7,0,199-1.5,4.2-4.3,7-8.5,8.5-14,.7-28,.7-42,0-4.2-1.5-7-4.3-8.5-8.5-.7-66.3-.7-132.7,0-199,1.7-4.2,4.5-7.2,8.5-9Z"></path><path class="cls-5" d="M302.5,66.5c40.6-3.3,70.1,13.1,88.5,49,14.6,41.4,4.8,75.6-29.5,102.5-31.7,19.3-63.3,19.3-95,0-34.8-27.2-44.6-61.7-29.5-103.5,13.9-26.9,35.8-42.9,65.5-48ZM311.5,125.5c20.3,2.9,27.8,14.2,22.5,34-10.5,15.1-22.9,16.8-37,5-8.7-13.6-6.9-25.4,5.5-35.5,3-1.6,6-2.8,9-3.5Z"></path><path class="cls-5" d="M556.5,66.5c24.1-2.5,46.1,3,66,16.5,16.1,13.8,25.3,31.3,27.5,52.5.7,28,.7,56,0,84-1,3-2.9,5.5-5.5,7.5-14.9,1.6-29.9,2-45,1-4.2-1.5-7-4.3-8.5-8.5-.3-23.3-.7-46.7-1-70-4.9-20.5-16.7-26-35.5-16.5-10.7,10.8-11.4,22.2-2,34,2.8,2.6,6.2,4.3,10,5,8-.8,14.1,2,18.5,8.5,1.6,13.6,1.9,27.3,1,41-2.2,7.5-7.2,11.2-15,11-40.9-1.9-67.5-22.2-80-61-8.8-44.5,6.7-77.4,46.5-98.5,7.6-2.9,15.3-5.1,23-6.5Z"></path><path class="cls-4" d="M865.5,74.5v47c-3.1,3.9-7.1,6.4-12,7.5-5.5.7-11,.5-16.5-.5-13.5,1-20.2,8.4-20,22-.3,23.3-.7,46.7-1,70-1.8,3.2-4.3,5.7-7.5,7.5-14.3.7-28.7.7-43,0-4.6-1.6-7.4-4.8-8.5-9.5-.7-29-.7-58,0-87,1.9-27,14.8-46.9,38.5-59.5,6.1-2.4,12.5-4.1,19-5,12.3-.7,24.7-.7,37,0,6,.2,10.7,2.7,14,7.5Z"></path><path class="cls-2" d="M683.5,69.5c13.3-.2,26.7,0,40,.5,4.7,1.1,7.9,3.9,9.5,8.5.7,47,.7,94,0,141-1.5,4.2-4.3,7-8.5,8.5-14,.7-28,.7-42,0-4.2-1.5-7-4.3-8.5-8.5-.7-46.7-.7-93.3,0-140,1.3-5.2,4.5-8.5,9.5-10Z"></path><path class="cls-1" d="M168.5,233.5h-26c-10.2-3-19.6-7.8-28-14.5-4.7-3.3-9.3-3.3-14,0-8.4,6.7-17.8,11.5-28,14.5h-25c-27.6-7.6-43.6-25.6-48-54v-99c2.1-4.7,5.7-7.6,11-8.5,12.3-.7,24.7-.7,37,0,6.1,1.1,9.9,4.6,11.5,10.5.3,28,.7,56,1,84,1.7,7.9,6.2,10,13.5,6.5,2.1-2.1,3.2-4.6,3.5-7.5,0-28.7.7-57.4,2-86,2.4-4.1,5.9-6.6,10.5-7.5,12.3-.7,24.7-.7,37,0,6.1,1.1,9.9,4.6,11.5,10.5.3,28,.7,56,1,84,1.7,7.9,6.2,10,13.5,6.5,1.6-2.3,2.7-4.8,3.5-7.5.3-27.7.7-55.3,1-83,1.6-5.9,5.4-9.4,11.5-10.5,12.3-.7,24.7-.7,37,0,6.5,1.1,10.3,5,11.5,11.5.7,30,.7,60,0,90-2.8,30.9-19,50.9-48.5,60Z"></path></svg> 