<?xml version="1.0" encoding="UTF-8"?> <svg xmlns="http://www.w3.org/2000/svg" viewBox="0 0 564.58 227.18"><defs><style>.cls-1{fill:#add8d8;}.cls-2{fill:none;stroke:#b0b0b0;stroke-miterlimit:10;stroke-width:0.3px;}.cls-3{fill:#272727;}</style></defs><title>Recurso 2</title><g id="Capa_2" data-name="Capa 2"><g id="Capa_1-2" data-name="Capa 1"><path class="cls-1" d="M0,164.28V146.66c0-3.89,3.16-6.7,7-7.06,4.59-.42,7.53.6,10.21,0,5.67-1.3,8.42-4.3,8.42-12.89v-32a7.06,7.06,0,0,1,7.06-7H49.51a7,7,0,0,1,7.05,7v38q0,17.85-9.74,28.46t-26,10.62c-1.6,0-8.5.08-14.08-.4A7,7,0,0,1,0,164.28Z"></path><path class="cls-1" d="M242.07.28h17.62c3.89,0,6.7,3.17,7.06,7,.42,4.58-.6,7.53,0,10.2,1.3,5.67,4.3,8.43,12.89,8.43h32A7.06,7.06,0,0,1,318.73,33V49.79a7.06,7.06,0,0,1-7.05,7.06h-38q-17.83,0-28.46-9.75t-10.62-26c0-1.6-.08-8.5.4-14.08A7,7,0,0,1,242.07.28Z"></path><path class="cls-1" d="M320.76,227.18H303.14c-3.89,0-6.7-3.16-7.06-7-.42-4.58.6-7.53,0-10.2-1.3-5.68-4.3-8.43-12.89-8.43h-32a7.05,7.05,0,0,1-7.05-7.06V177.67a7,7,0,0,1,7.05-7h38q17.83,0,28.46,9.75t10.62,26c0,1.6.08,8.5-.4,14.08A7,7,0,0,1,320.76,227.18Z"></path><path class="cls-1" d="M564.13,93.13v17.62c0,3.89-3.16,6.7-7,7.06-4.59.42-7.54-.6-10.21,0-5.67,1.3-8.43,4.3-8.43,12.89v32a7,7,0,0,1-7.05,7H514.62a7.06,7.06,0,0,1-7.06-7v-38q0-17.83,9.75-28.46t26-10.62c1.6,0,8.5-.08,14.08.4A7,7,0,0,1,564.13,93.13Z"></path><line class="cls-2" x1="270.7" x2="270.7" y2="226.28"></line><line class="cls-2" x1="263.57" x2="263.57" y2="226.28"></line><line class="cls-2" x1="176.9" y1="0.33" x2="176.9" y2="226.61"></line><line class="cls-2" x1="169.59" y1="0.33" x2="169.59" y2="226.61"></line><line class="cls-2" x1="56.56" x2="56.56" y2="226.28"></line><line class="cls-2" x1="564.58" y1="168.94" x2="0.82" y2="171.69"></line><line class="cls-2" x1="563.89" y1="86.29" x2="0.13" y2="89.03"></line><line class="cls-2" x1="564.01" y1="55.24" x2="0.25" y2="57.98"></line><line class="cls-2" x1="564.08" y1="48.87" x2="0.32" y2="51.62"></line><line class="cls-2" x1="301.6" x2="301.6" y2="226.28"></line><line class="cls-2" x1="309.4" x2="309.4" y2="226.28"></line><line class="cls-2" x1="395.41" x2="395.41" y2="226.28"></line><line class="cls-2" x1="407.75" y1="0.33" x2="407.75" y2="226.61"></line><line class="cls-2" x1="438.57" x2="438.57" y2="226.28"></line><line class="cls-2" x1="451" y1="0.33" x2="451" y2="226.61"></line><line class="cls-2" x1="507.56" y1="0.33" x2="507.56" y2="226.61"></line><path class="cls-3" d="M63.62,87.66H80.41a7.06,7.06,0,0,1,7.06,7.06V132c0,3.47.35,5.88,1.07,7.23a4,4,0,0,0,3.88,2q5.2,0,5.21-9.25V94.72a7.06,7.06,0,0,1,7.06-7.06h16.78a7.06,7.06,0,0,1,7.06,7.06V132q0,5.21,1.12,7.23a4.08,4.08,0,0,0,3.92,2q5.13,0,5.12-9.25V94.72a7.06,7.06,0,0,1,7.06-7.06h16.79a7.06,7.06,0,0,1,7.05,7.06v43.67A32.77,32.77,0,0,1,160.26,162a30.23,30.23,0,0,1-22.64,9.71,31.41,31.41,0,0,1-20.4-7.61,7,7,0,0,0-8.65-.11q-9.88,7.72-19.86,7.72-15.45,0-24.79-11.24-7.35-8.83-7.36-25.53V94.72A7.06,7.06,0,0,1,63.62,87.66Z"></path><path class="cls-3" d="M221,84.77a40.82,40.82,0,0,1,30,12.6,42.73,42.73,0,0,1-.16,60.6,43.59,43.59,0,0,1-61.27,0,41.19,41.19,0,0,1-12.72-30.36,40.79,40.79,0,0,1,12.72-30.45Q202.34,84.78,221,84.77Zm-.83,30.49a11.32,11.32,0,0,0-8.43,3.59,12.79,12.79,0,0,0,0,17.56,11.58,11.58,0,0,0,16.86,0,12.79,12.79,0,0,0,0-17.56A11.38,11.38,0,0,0,220.19,115.26Z"></path><path class="cls-3" d="M301.6,63.91v98.66a7.06,7.06,0,0,1-7.05,7.06H277.76a7.06,7.06,0,0,1-7.06-7.06V63.91a7.06,7.06,0,0,1,7.06-7.06h16.79A7.06,7.06,0,0,1,301.6,63.91Z"></path><path class="cls-3" d="M359.72,147.19v16.37a7,7,0,0,1-6.88,7.06h-.06q-18.58,0-31-12.23t-12.4-30.66a42.68,42.68,0,0,1,43-42.88q20,0,31.52,11.7t11.52,31.93v33.34a7.06,7.06,0,0,1-7.05,7.06H371.57a7.06,7.06,0,0,1-7.06-7.06V130.71q0-6.53-3.18-10.41a10.47,10.47,0,0,0-8.55-3.88,12.16,12.16,0,0,0-8.76,20.4,10.93,10.93,0,0,0,8.18,3.31h.48A7,7,0,0,1,359.72,147.19Z"></path><path class="cls-3" d="M438.57,93.56v68.26a7.06,7.06,0,0,1-7.05,7.06H414.73a7.06,7.06,0,0,1-7.06-7.06V93.56a7.05,7.05,0,0,1,7.06-7h16.79A7,7,0,0,1,438.57,93.56ZM423.21,49.74a15.12,15.12,0,0,1,10.86,4.42,14.61,14.61,0,0,1,.25,21,17,17,0,0,1-22.23,0,14.61,14.61,0,0,1,.25-21A15.12,15.12,0,0,1,423.21,49.74Z"></path><path class="cls-3" d="M507.56,92.28V109.9c0,3.89-3.16,6.7-7,7.06-4.58.42-7.53-.6-10.2,0-5.67,1.3-8.43,4.3-8.43,12.89v32a7.05,7.05,0,0,1-7.06,7.05H458.06a7.05,7.05,0,0,1-7.06-7.05v-38q0-17.84,9.75-28.46t26-10.62c1.61,0,8.5-.08,14.09.4A7,7,0,0,1,507.56,92.28Z"></path></g></g></svg> 