<?xml version="1.0" encoding="UTF-8"?> <svg xmlns="http://www.w3.org/2000/svg" width="43" height="45" viewBox="0 0 43 45" fill="none"><g clip-path="url(#clip0_1129_3777)"><path d="M9.14062 30.9375C11.0823 30.9375 12.6562 29.3635 12.6562 27.4219C12.6562 25.4802 11.0823 23.9062 9.14062 23.9062C7.199 23.9062 5.625 25.4802 5.625 27.4219C5.625 29.3635 7.199 30.9375 9.14062 30.9375Z" stroke="#222222" stroke-width="1.5" stroke-linecap="round" stroke-linejoin="round"></path><path d="M7.73438 35.8594L9.15293 39.6439C9.56777 40.7514 10.626 41.4844 11.809 41.4844H16.7871C17.6115 41.4844 18.2812 40.8164 18.2812 39.9902C18.2812 39.2361 17.7205 38.6016 16.9734 38.5084L13.1291 38.0285C12.8461 37.9934 12.6123 37.793 12.5385 37.517C12.31 36.6645 11.7791 34.8082 11.25 33.75C10.5469 32.3438 9.84375 30.9375 7.38281 30.9375C4.21875 30.9375 3.51562 33.0469 2.8125 35.8594L0.703125 44.2969" stroke="#222222" stroke-width="1.5" stroke-linecap="round" stroke-linejoin="round"></path><path d="M9.84375 40.7812V44.2969" stroke="#222222" stroke-width="1.5" stroke-linecap="round" stroke-linejoin="round"></path><path d="M9.84375 44.2969H21.0938" stroke="#222222" stroke-width="1.5" stroke-linecap="round" stroke-linejoin="round"></path><path d="M14.0625 41.4844H21.0938" stroke="#222222" stroke-width="1.5" stroke-linecap="round" stroke-linejoin="round"></path><path d="M33.0469 30.9375C34.9885 30.9375 36.5625 29.3635 36.5625 27.4219C36.5625 25.4802 34.9885 23.9062 33.0469 23.9062C31.1052 23.9062 29.5312 25.4802 29.5312 27.4219C29.5312 29.3635 31.1052 30.9375 33.0469 30.9375Z" stroke="#222222" stroke-width="1.5" stroke-linecap="round" stroke-linejoin="round"></path><path d="M21.0938 30.9375C23.0354 30.9375 24.6094 29.3635 24.6094 27.4219C24.6094 25.4802 23.0354 23.9062 21.0938 23.9062C19.1521 23.9062 17.5781 25.4802 17.5781 27.4219C17.5781 29.3635 19.1521 30.9375 21.0938 30.9375Z" stroke="#222222" stroke-width="1.5" stroke-linecap="round" stroke-linejoin="round"></path><path d="M34.4531 35.8594L33.0346 39.6439C32.6197 40.7514 31.5615 41.4844 30.3785 41.4844H25.4004C24.576 41.4844 23.9062 40.8164 23.9062 39.9902C23.9062 39.2361 24.467 38.6016 25.2141 38.5084L29.0584 38.0285C29.3414 37.9934 29.5752 37.793 29.649 37.517C29.8775 36.6645 30.4084 34.8082 30.9375 33.75C31.6406 32.3438 32.3438 30.9375 34.8047 30.9375C37.9688 30.9375 38.6719 33.0469 39.375 35.8594L41.4844 44.2969" stroke="#222222" stroke-width="1.5" stroke-linecap="round" stroke-linejoin="round"></path><path d="M32.3438 40.7812V44.2969" stroke="#222222" stroke-width="1.5" stroke-linecap="round" stroke-linejoin="round"></path><path d="M32.3438 44.2969H21.0938" stroke="#222222" stroke-width="1.5" stroke-linecap="round" stroke-linejoin="round"></path><path d="M28.125 41.4844H21.0938" stroke="#222222" stroke-width="1.5" stroke-linecap="round" stroke-linejoin="round"></path><path d="M15.4688 37.9688V35.8594C15.4688 33.1418 17.9877 30.9375 21.0938 30.9375C24.1998 30.9375 26.7188 33.1418 26.7188 35.8594V37.9688" stroke="#222222" stroke-width="1.5" stroke-linecap="round" stroke-linejoin="round"></path><path d="M21.1256 4.37871C18.1057 4.33477 15.6659 6.6832 15.5991 9.64512C15.5639 11.1727 16.195 12.2801 17.0405 13.4191C17.7823 14.4176 18.3237 14.5213 18.6278 16.0137" stroke="#222222" stroke-width="1.5" stroke-linecap="round" stroke-linejoin="round"></path><path d="M21.125 4.37871C24.1449 4.33477 26.5848 6.6832 26.6516 9.64512C26.6867 11.1727 26.0557 12.2801 25.2102 13.4191C24.4684 14.4176 23.8162 14.5195 23.5121 16.0137" stroke="#222222" stroke-width="1.5" stroke-linecap="round" stroke-linejoin="round"></path><path d="M23.5148 16.0137H23.4973H18.709" stroke="#222222" stroke-width="1.5" stroke-linecap="round" stroke-linejoin="round"></path><path d="M21.125 19.6875H22.4082L23.5139 17.8506V16.0137" stroke="#222222" stroke-width="1.5" stroke-linecap="round" stroke-linejoin="round"></path><path d="M22.8262 7.27207C23.575 7.69922 24.1129 8.40059 24.2711 9.22149" stroke="#222222" stroke-width="1.5" stroke-linecap="round" stroke-linejoin="round"></path><path d="M18.627 16.0137V17.8506L19.8434 19.6875H21.0703" stroke="#222222" stroke-width="1.5" stroke-linecap="round" stroke-linejoin="round"></path><path d="M21.0703 0.703125V1.92832" stroke="#222222" stroke-width="1.5" stroke-linecap="round" stroke-linejoin="round"></path><path d="M14.5918 3.39433L15.4549 4.25918" stroke="#222222" stroke-width="1.5" stroke-linecap="round" stroke-linejoin="round"></path><path d="M11.9082 9.88946H13.1299" stroke="#222222" stroke-width="1.5" stroke-linecap="round" stroke-linejoin="round"></path><path d="M14.5918 16.3846L15.4549 15.518" stroke="#222222" stroke-width="1.5" stroke-linecap="round" stroke-linejoin="round"></path><path d="M27.5506 16.3846L26.6875 15.518" stroke="#222222" stroke-width="1.5" stroke-linecap="round" stroke-linejoin="round"></path><path d="M30.2334 9.88946H29.0117" stroke="#222222" stroke-width="1.5" stroke-linecap="round" stroke-linejoin="round"></path><path d="M27.5506 3.39433L26.6875 4.25918" stroke="#222222" stroke-width="1.5" stroke-linecap="round" stroke-linejoin="round"></path></g><defs><clipPath id="clip0_1129_3777"><rect width="42.1875" height="45" fill="white"></rect></clipPath></defs></svg> 