<?xml version="1.0" encoding="UTF-8"?> <svg xmlns="http://www.w3.org/2000/svg" width="45" height="45" viewBox="0 0 45 45" fill="none"><g clip-path="url(#clip0_1129_3759)"><path d="M30.5332 7.03199L36.6318 13.1286" stroke="#222222" stroke-width="2.16207" stroke-linecap="round" stroke-linejoin="round"></path><path d="M33.3496 4.50672L36.4365 1.41984C37.182 0.674323 38.3903 0.674323 39.1378 1.41984L42.2464 4.52847C42.9919 5.27399 42.9919 6.48224 42.2464 7.22974L39.1595 10.3166L33.3477 4.50474H33.3496V4.50672Z" stroke="#222222" stroke-width="2.16207" stroke-linecap="round" stroke-linejoin="round"></path><path d="M20.9102 28.8537L36.0657 44.0093C36.5996 44.5392 37.4599 44.5392 37.9898 44.0093L44.0093 37.9898C44.5393 37.4598 44.5393 36.5996 44.0093 36.0656L41.6027 33.663L38.5791 30.6394L35.5496 27.6099L32.526 24.5863L28.8577 20.914" stroke="#222222" stroke-width="2.16207" stroke-linecap="round" stroke-linejoin="round"></path><path d="M14.81 22.7571L0.991228 8.93434C0.461257 8.40042 0.461257 7.54021 0.991228 7.01024L7.01074 0.990724C7.54071 0.460754 8.40092 0.460754 8.93089 0.990724L11.3375 3.39734L14.3611 6.42094L17.3906 9.45047L20.4142 12.4741L22.7536 14.8115" stroke="#222222" stroke-width="2.16207" stroke-linecap="round" stroke-linejoin="round"></path><path d="M11.338 3.39931L7.36523 7.36816" stroke="#222222" stroke-width="2.16207" stroke-linecap="round" stroke-linejoin="round"></path><path d="M14.3634 6.42687L11.9805 8.80778" stroke="#222222" stroke-width="2.16207" stroke-linecap="round" stroke-linejoin="round"></path><path d="M17.3868 9.45245L13.418 13.4213" stroke="#222222" stroke-width="2.16207" stroke-linecap="round" stroke-linejoin="round"></path><path d="M20.4141 12.48L18.0332 14.8609" stroke="#222222" stroke-width="2.16207" stroke-linecap="round" stroke-linejoin="round"></path><path d="M32.5196 24.5823L30.1387 26.9672" stroke="#222222" stroke-width="2.16207" stroke-linecap="round" stroke-linejoin="round"></path><path d="M35.547 27.6099L31.5781 31.5767" stroke="#222222" stroke-width="2.16207" stroke-linecap="round" stroke-linejoin="round"></path><path d="M38.5743 30.6354L36.1934 33.0163" stroke="#222222" stroke-width="2.16207" stroke-linecap="round" stroke-linejoin="round"></path><path d="M41.5997 33.663L37.6309 37.6298" stroke="#222222" stroke-width="2.16207" stroke-linecap="round" stroke-linejoin="round"></path><path d="M39.3021 10.461L8.75166 41.0074L1.48633 42.1761L2.65503 34.9108L33.2015 4.36434L39.3021 10.461Z" stroke="#222222" stroke-width="2.16207" stroke-linecap="round" stroke-linejoin="round"></path><path d="M5.70312 37.9601L33.5819 10.0813" stroke="#222222" stroke-width="2.16207" stroke-linecap="round" stroke-linejoin="round"></path><path d="M2.65625 34.9108L8.75288 41.0074" stroke="#222222" stroke-width="2.16207" stroke-linecap="round" stroke-linejoin="round"></path></g><defs><clipPath id="clip0_1129_3759"><rect width="45" height="45" fill="white"></rect></clipPath></defs></svg> 