<?xml version="1.0" encoding="UTF-8"?> <svg xmlns="http://www.w3.org/2000/svg" width="53" height="45" viewBox="0 0 53 45" fill="none"><path d="M17.916 36.3682C18.3593 35.925 18.8122 35.2523 20.2275 35.2523H36.4063C37.6914 35.2523 44.7523 28.1291 45.6505 27.1221C46.5137 26.1539 50.361 20.3527 51.4284 17.8565C50.7576 16.9545 48.9457 16.1943 46.8053 16.6901C44.762 17.1644 43.5606 18.6264 42.1822 21.3073L36.8846 24.0757" stroke="#222222" stroke-width="1.00916" stroke-linejoin="round"></path><path d="M24.8506 28.3177H34.0948C38.7179 28.3177 38.7179 22.5399 34.0948 22.5399H27.9884C27.0261 22.5399 25.22 20.2283 23.6939 20.2283H17.916C16.3549 20.2283 14.4147 21.455 13.293 22.499C11.5608 24.2312 8.66992 27.1415 8.66992 27.1415" stroke="#222222" stroke-width="1.00916" stroke-linejoin="round"></path><path d="M6.35983 24.7714L0.582031 30.5492L14.4498 44.417L20.2276 38.6392L6.35983 24.7714Z" stroke="#222222" stroke-width="1.00916" stroke-linejoin="round"></path><path d="M6.36133 30.5495L8.67286 32.8611" stroke="#222222" stroke-width="1.00916" stroke-linejoin="round"></path><path d="M13.2964 5.20629L27.5583 5.22962C28.6723 2.42623 31.4037 0.583229 34.6037 0.583229C38.7913 0.583229 42.1876 3.8357 42.1876 8.02329C42.1876 12.2109 38.7932 15.6072 34.6037 15.6072C31.9364 15.6072 29.6054 14.2211 28.2543 12.1409H24.8521L23.6973 10.9861L22.5425 12.1409H20.231L19.0762 10.9861H16.7647L15.6099 12.1409H12.1436L9.83203 8.67456L13.2984 5.20823L13.2964 5.20629Z" stroke="#222222" stroke-width="1.00916" stroke-miterlimit="10"></path><path d="M36.4062 6.36108V9.82741" stroke="#222222" stroke-width="1.00916" stroke-miterlimit="10"></path></svg> 