<?xml version="1.0" encoding="UTF-8"?>
<svg id="Capa_1" data-name="Capa 1" xmlns="http://www.w3.org/2000/svg" viewBox="0 0 860.75 126.73">
  <defs>
    <style>
      .cls-1 {
        fill: #9f6a1f;
      }
    </style>
  </defs>
  <path class="cls-1" d="M108.89,3.86c-13.68,7.14-11.11,31.21-10.98,35.67.06,2.02,1.07,71.88,3.32,76.9,1.04,2.33,7.16,4.28,7.66,7.31h-36.95c3.37-2.41,5.42-4.69,6.39-11.13.54-3.57,1.09-72.8,1.09-72.8l-24.97,83.92L21.47,39.81s-2.35,71.89-.36,77.87c.56,1.68,3.69,4.28,7.09,6.06H0c4.99-2.68,6.86-4.78,7.91-7.77,1.41-4,1.83-19.27,2.11-24.66.84-16.07,3.16-59.66,1.13-73.62C9.77,8.2,7.96,7.82,2,3.86l29.84.12,23.59,78.81L77.92,3.86h30.97Z"/>
  <path class="cls-1" d="M704.31,112.25c1.05,6.48,6.33,6.96,8.99,11.47h-35.97c-.46-.49,6.54-6.6,7.24-8.23,1.82-4.29,2.53-84.35,1.73-93.12-.69-7.51-3.23-12.68-8.96-17.5,16.4,1.45,35.06-3.19,51.19-.75,32.54,4.93,34.58,56.42,2.81,64.73l.16,2.2,27.38,40.35c.75,1.11,1.59,2.15,2.51,3.11,2.3,2.42,7.32,6.04,10.58,6.79l2.45.57-28.11,3.86c-9.19-7.39-30.03-47.93-36.93-53.54-1.85-1.5-5.07-2.17-5.05,1.1v38.96h-.02ZM720.91,13.23c-5.1-2.18-11.3-1.25-16.6-1.37v49.95c0,1.72,1.29,3.16,3,3.37,28,3.37,31.79-44.19,13.61-51.95h-.01Z"/>
  <path class="cls-1" d="M329.17,3.86c45.62,4.16,57.95,42.64,48.34,83.31-9.62,40.72-50.25,40.06-83.8,37.57-.17-.5,5.37-3.24,6.81-8.67,5.42-20.58,3.83-86.8,2.2-97.74-.88-5.92-5.04-9.8-8.01-14.47,0,0,23.48-1,34.47,0h-.01ZM321.68,12.85v100.4c10.07,2.29,22.77-.86,28.27-7.76,17.86-22.4,14.52-97.68-28.27-92.64Z"/>
  <path class="cls-1" d="M848.75,110.32c-12.32,18.21-40.83,21.65-58.02,8.41-27.84-21.45-27.08-101.3,8.27-114.88,60.4-23.19,75.41,68.53,49.75,106.47ZM801.57,16.2c-19.73,20.22-13.44,124.19,24.67,99.1,18.29-12.04,18.34-91.49-1.11-102.9-7.83-4.59-17.44-2.48-23.56,3.8Z"/>
  <path class="cls-1" d="M519.99,3.86l42.46,78.92V16.34c0-6.02-8.65-8.35-10.99-12.49h23.48c.29,0,7.32-.27,7.42,0-4.22,4.55-8.18,9.04-8.95,15.45,0,0-.44,74.09.03,106.42h-11.5l-48.44-93.9v79.42c0,7.25,4.11,11.29,10.99,14.48h-28.97c5.9-5.5,5.62-8.35,6.97-15.5,2.01-10.66,3.37-73.66,1.04-88.91-1.59-10.39-3.34-11.63-14-17.46h30.47-.01Z"/>
  <path class="cls-1" d="M209.78,124.72h-37.96c1.07-.29,2.3-.93,3.48-1.83,3.44-2.6,4.81-7.13,3.63-11.27l-6.22-21.74h-29.39l-6.79,25.4c-.49,2.67,3.08,5.18,5.48,6.43.6.31,3.61.83,3.47,2.01l-28.96-.23c8.7-6.54,7.98-8.19,11.02-17.16L155.48,3.86h14.87l28,106.85c1.67,5.33,5.91,12.59,11.44,14.02h0ZM169.83,80.78l-12.49-46.97-12.49,46.97h24.98Z"/>
  <path class="cls-1" d="M659.35,3.86l2.99,24.97c-3.59-7.02-41.95-27.55-41.95-12.48v38.96h0c-.06,1.69,2.26,1.5,3.62,1.5h17.36c3.32-.16,6.93-6.6,9.99-12.99v34.97c-2.77-7.55-4.83-13.99-10.41-13.99h-20.56v45.65c0,3.48,2.82,6.3,6.3,6.3h10.19c20.18-2.49,25.44-17.16,26.47-15.98l-3.99,23.97h-65.93c2.51-2.52,8.27-8.28,9.41-11.62,2.76-8.1.93-91.7-1.74-99.45-1.35-3.93-.74-5.6-5.68-9.8h63.94,0Z"/>
  <path class="cls-1" d="M217.78,124.74c5.18-2.68,7.29-7.79,8.42-10.67,3.4-8.63,1.38-92.52,1.32-95.37-.18-7.91-3.69-11.07-8.74-14.84h32.96c-6.13,6.15-7.05,10.85-7.96,19.51-.91,8.66-1.04,84.26.43,88.43,4.25,12.1,32.55-6.87,39.84-18.85.47-.77.91-.42.87.47-.32,8.25-2.01,28.45-3.7,31.32h-63.44,0Z"/>
  <path class="cls-1" d="M472.42,110.18c-12.32,18.21-40.83,21.65-58.02,8.41-27.84-21.45-27.08-101.3,8.27-114.88,60.4-23.19,75.41,68.53,49.75,106.47ZM425.25,16.05c-19.73,20.22-13.44,124.19,24.67,99.1,18.29-12.04,18.34-91.49-1.11-102.9-7.83-4.59-17.44-2.48-23.56,3.8h0Z"/>
</svg>