<?xml version="1.0" encoding="UTF-8"?>
<svg id="Capa_1" data-name="Capa 1" xmlns="http://www.w3.org/2000/svg" viewBox="0 0 764.26 155.41">
  <defs>
    <style>
      .cls-1 {
        fill: #9f6a1f;
      }
    </style>
  </defs>
  <path class="cls-1" d="M603.41,43.13c-11.88-39.04-63.48-44.76-83.72-9.29-26.82,47.02-6.66,127.32,57.43,109.08,3.68-1.05,6.12-4.53,5.98-8.35l-.71-44c-1.83-5.55-7.32-7.82-10.93-10.46l43.94-1.01c-2.87,2.89-8.04,5.25-9.37,11.47l.47,49.02c-.03,2.95-1.77,5.63-4.47,6.8-44.51,19.32-105.53,9.05-117.18-45.11-15.84-73.64,52.03-123.16,118.58-91.6v33.47l-.02-.02Z"/>
  <path class="cls-1" d="M752.27,43.13c-11.88-39.04-63.48-44.76-83.72-9.29-26.82,47.02-6.66,127.32,57.43,109.08,3.68-1.05,6.12-4.53,5.98-8.35l-.71-44c-1.83-5.55-7.32-7.82-10.93-10.46l43.94-1.01c-2.87,2.89-8.04,5.25-9.37,11.47l.47,49.02c-.03,2.95-1.77,5.63-4.47,6.8-44.51,19.32-105.53,9.05-117.18-45.11-15.84-73.64,52.03-123.16,118.58-91.6v33.47l-.02-.02Z"/>
  <path class="cls-1" d="M33.97,92.08v43.46c0,7.79,7.78,12.25,12.99,16.48H1c7.82-4.32,8.73-6.33,9.99-15.49,3.01-21.97,2.46-92.17.04-114.92C10.12,13.04,6.04,9.52,0,4.17h68.43c47.84,0,49.94,87.91-5.99,87.91,0,0-28.47,0-28.47,0ZM33.97,82.09h22.48c29.8,0,28.95-66.93,3-66.93h-25.48v66.93Z"/>
  <path class="cls-1" d="M101.9,152.02l5.73-5.42c2.14-2.03,3.79-4.52,4.81-7.29L162.53,3.44c2.7-3.81,11.11-2.92,13.54.99,0,0,48.57,128.29,50.54,132.28,1.27,2.57,2.44,5.57,4.17,7.82,2.62,3.39,6.7,4.12,7.98,7.5h-48.95c4.26-1.61,6.92-2.53,8.7-3.22,2.7-1.05,4.07-4.05,3.11-6.78l-12.95-36.81-49.33-.23-11.82,33.72c-1.37,3.91.22,8.25,3.79,10.36,3.22,1.9,6.56,2.95,6.56,2.95h-35.97ZM183.82,94.08l-20.99-57.94-20.97,57.94h41.96Z"/>
  <path class="cls-1" d="M459.55,4.17v31.97c-5.59-11.63-13.2-20.98-27.47-20.98h-30.47v53.95h26.47c7.29,0,15.38-6.34,19.47-11.99l1.01,35.95c-3.43-7.3-4.9-7.66-9.65-10.82-2.7-1.8-10.86-4.16-13.83-4.16h-23.48v61.44l1.5,1.5h31.97c12.67,0,26.88-12.56,31.46-23.97l-7.48,34.96h-91.41c5.56-5.26,8.91-7.85,10.72-15.75,2.49-10.86,2.72-108.04,0-118.35-1.86-7.05-5.75-9.09-10.72-13.75h91.91Z"/>
  <path class="cls-1" d="M259.25,15.15c-12.55,1.53-20.39,10.53-25.97,20.99l4.09-32.05h105.68l5.64,30.52h0c-3.02-10-17.95-19.47-28.49-19.47h-15.03c-1.91,0-3.45,1.55-3.45,3.45v118.18c0,1.87,3.08,6.33,4.56,8.18,2.92,3.66,5.23,3.55,9.43,7.06h-49.95c5.36-4.49,11.98-7.7,12.89-15.58l1.06-118c.02-1.84-1.43-3.36-3.27-3.44-4.57-.18-12.77-.39-17.18.15h-.01Z"/>
</svg>